<?xml version="1.0" ?>
<svg data-name="Layer 1" id="Layer_1" viewBox="0 0 140 140" xmlns="http://www.w3.org/2000/svg">
    <title>AVAX Logo</title>
    <!-- Enlarged Red Circle Background -->
    <circle cx="70" cy="70" r="70" fill="#ff0000" />
    <!-- AVAX White Paths -->
    <path fill="#ffffff" d="M51,114.68H26a5.3,5.3,0,0,1-4.62-7.9L65.46,28.59a5.3,5.3,0,0,1,9.23,0L87.9,51.91a5.3,5.3,0,0,1,0,5.31L55.59,112.07A5.29,5.29,0,0,1,51,114.68Z"/>
    <path fill="#ffffff" d="M79.48,106.76,94.33,80.27a5.31,5.31,0,0,1,9.24,0l15,26.48a5.31,5.31,0,0,1-4.61,7.93H84.11A5.31,5.31,0,0,1,79.48,106.76Z"/>
</svg>
