<svg width="90" height="90" version="1.1" id="Layer_1" xmlns="http://www.w3.org/2000/svg" xmlns:xlink="http://www.w3.org/1999/xlink" x="0px" y="0px"
	 viewBox="0 0 227 222" enable-background="new 0 0 227 222" xml:space="preserve">
<path fill="none" opacity="1.000000" stroke="none"
	d="
M124.000000,223.000000 
	C82.666672,223.000000 41.833340,223.000000 1.000005,223.000000 
	C1.000004,149.000000 1.000004,75.000015 1.000002,1.000015 
	C76.666656,1.000010 152.333313,1.000010 227.999969,1.000005 
	C227.999985,74.999985 227.999985,148.999969 228.000000,222.999969 
	C193.500000,223.000000 159.000000,223.000000 124.000000,223.000000 
M151.060043,203.658356 
	C194.079300,185.218567 218.472534,143.722549 213.038147,98.225655 
	C207.324631,50.391758 165.311401,12.183152 117.141815,11.013467 
	C66.707352,9.788785 24.233263,44.256199 15.300446,93.656998 
	C7.874120,134.726517 27.474060,176.918030 63.878601,197.429764 
	C91.594490,213.045990 120.525658,214.894669 151.060043,203.658356 
z"/>
<path fill="#020202" opacity="1.000000" stroke="none" 
	d="
M150.695618,203.796585 
	C120.525658,214.894669 91.594490,213.045990 63.878601,197.429764 
	C27.474060,176.918030 7.874120,134.726517 15.300446,93.656998 
	C24.233263,44.256199 66.707352,9.788785 117.141815,11.013467 
	C165.311401,12.183152 207.324631,50.391758 213.038147,98.225655 
	C218.472534,143.722549 194.079300,185.218567 150.695618,203.796585 
M76.675949,134.638321 
	C76.407295,125.552246 75.577087,116.678085 67.057083,110.778610 
	C72.932426,106.888206 75.408875,101.572662 75.987167,95.374718 
	C76.496124,89.919769 76.526573,84.421761 76.854820,78.947952 
	C77.259216,72.204437 78.255867,71.248924 84.825935,70.917770 
	C85.617752,70.877861 86.405373,70.754738 87.229134,70.666519 
	C87.229134,67.226013 87.229134,64.027992 87.229134,60.587189 
	C85.337334,60.587189 83.853783,60.580650 82.370300,60.588230 
	C71.283539,60.644905 66.561485,64.681404 65.313629,75.736916 
	C64.793465,80.345375 64.991135,85.036987 64.902275,89.691551 
	C64.692932,100.657333 63.443504,102.424301 53.314850,105.690872 
	C53.314850,108.598007 53.302639,111.582771 53.324474,114.567291 
	C53.329212,115.214935 53.456097,115.861694 53.521965,116.465286 
	C62.150417,118.115356 64.062347,120.167236 64.762787,128.927689 
	C65.027382,132.237030 64.761597,135.586334 64.961601,138.903915 
	C65.190979,142.708878 65.391640,146.551605 66.101372,150.283493 
	C67.296333,156.566757 71.492691,160.089798 77.685699,160.940292 
	C80.761101,161.362625 83.942413,161.013733 87.323105,161.013733 
	C87.323105,157.677002 87.323105,154.464111 87.323105,151.280533 
	C77.378738,150.410492 76.880333,149.876022 76.681557,140.084885 
	C76.651161,138.588043 76.676704,137.090073 76.675949,134.638321 
M150.816879,79.927536 
	C151.412354,91.005753 149.212204,102.900436 160.497162,110.997688 
	C153.399841,115.576790 151.632248,122.369568 151.154587,129.709717 
	C150.917023,133.360428 150.939316,137.028275 150.852859,140.688583 
	C150.636017,149.867157 149.896378,150.638107 140.926208,151.083664 
	C140.661255,151.096832 140.410828,151.402451 140.158295,151.580505 
	C140.158295,154.671722 140.158295,157.762939 140.158295,160.806366 
	C152.946335,162.710648 162.148178,159.001602 162.214737,143.908325 
	C162.235962,139.091827 162.535919,134.274368 162.788498,129.461563 
	C163.264511,120.391212 164.972244,118.381226 173.967514,116.334274 
	C173.967514,114.574028 173.967529,112.755486 173.967529,110.936943 
	C173.967529,108.982460 173.967514,107.027977 173.967514,105.142151 
	C165.392426,103.885132 163.481201,101.891098 162.893723,93.477180 
	C162.523407,88.173645 162.550522,82.841759 162.157410,77.540527 
	C161.121048,63.564838 153.844955,58.231216 140.148407,61.252308 
	C140.148407,64.354553 140.148407,67.456795 140.148407,70.519035 
	C149.865616,71.614609 149.865616,71.614609 150.816879,79.927536 
M96.245880,112.043198 
	C96.615356,108.252670 95.162979,105.034554 91.453239,104.478661 
	C89.120911,104.129158 85.861053,105.234337 84.101288,106.860176 
	C81.137199,109.598701 82.274269,114.363838 85.737617,116.722046 
	C89.439346,119.242538 93.237343,117.786629 96.245880,112.043198 
M136.820618,104.022636 
	C131.087494,106.730629 129.050339,111.738327 132.843414,115.090271 
	C134.687347,116.719757 138.595505,117.804840 140.622711,116.933723 
	C142.667389,116.055099 144.626740,112.471756 144.678314,110.032280 
	C144.761414,106.102615 141.634171,104.075882 136.820618,104.022636 
M114.325745,103.945976 
	C110.461143,103.859169 107.553207,105.751579 107.169037,109.420395 
	C106.935493,111.650719 108.116035,114.807564 109.785042,116.226433 
	C111.273239,117.491600 114.809120,117.871483 116.523888,116.944641 
	C118.479141,115.887802 120.861000,112.613472 120.461914,110.911453 
	C119.861481,108.350662 117.006042,106.318611 114.325745,103.945976 
z"/>
<path fill="#F6F6F6" opacity="1.000000" stroke="none" 
	d="
M76.676163,135.115479 
	C76.676704,137.090073 76.651161,138.588043 76.681557,140.084885 
	C76.880333,149.876022 77.378738,150.410492 87.323105,151.280533 
	C87.323105,154.464111 87.323105,157.677002 87.323105,161.013733 
	C83.942413,161.013733 80.761101,161.362625 77.685699,160.940292 
	C71.492691,160.089798 67.296333,156.566757 66.101372,150.283493 
	C65.391640,146.551605 65.190979,142.708878 64.961601,138.903915 
	C64.761597,135.586334 65.027382,132.237030 64.762787,128.927689 
	C64.062347,120.167236 62.150417,118.115356 53.521965,116.465286 
	C53.456097,115.861694 53.329212,115.214935 53.324474,114.567291 
	C53.302639,111.582771 53.314850,108.598007 53.314850,105.690872 
	C63.443504,102.424301 64.692932,100.657333 64.902275,89.691551 
	C64.991135,85.036987 64.793465,80.345375 65.313629,75.736916 
	C66.561485,64.681404 71.283539,60.644905 82.370300,60.588230 
	C83.853783,60.580650 85.337334,60.587189 87.229134,60.587189 
	C87.229134,64.027992 87.229134,67.226013 87.229134,70.666519 
	C86.405373,70.754738 85.617752,70.877861 84.825935,70.917770 
	C78.255867,71.248924 77.259216,72.204437 76.854820,78.947952 
	C76.526573,84.421761 76.496124,89.919769 75.987167,95.374718 
	C75.408875,101.572662 72.932426,106.888206 67.057083,110.778610 
	C75.577087,116.678085 76.407295,125.552246 76.676163,135.115479 
z"/>
<path fill="#F8F8F8" opacity="1.000000" stroke="none" 
	d="
M150.799896,79.475418 
	C149.865616,71.614609 149.865616,71.614609 140.148407,70.519035 
	C140.148407,67.456795 140.148407,64.354553 140.143585,61.250595 
	C153.844955,58.231216 161.121048,63.564838 162.157410,77.540527 
	C162.550522,82.841759 162.523407,88.173645 162.893723,93.477180 
	C163.481201,101.891098 165.392426,103.885132 173.967514,105.142151 
	C173.967514,107.027977 173.967529,108.982460 173.967529,110.936943 
	C173.967529,112.755486 173.967514,114.574028 173.967514,116.334274 
	C164.972244,118.381226 163.264511,120.391212 162.788498,129.461563 
	C162.535919,134.274368 162.235962,139.091827 162.214737,143.908325 
	C162.148178,159.001602 152.946335,162.710648 140.158295,160.806366 
	C140.158295,157.762939 140.158295,154.671722 140.155975,151.576111 
	C140.410828,151.402451 140.661255,151.096832 140.926208,151.083664 
	C149.896378,150.638107 150.636017,149.867157 150.852859,140.688583 
	C150.939316,137.028275 150.917023,133.360428 151.154587,129.709717 
	C151.632248,122.369568 153.399841,115.576790 160.497162,110.997688 
	C149.212204,102.900436 151.412354,91.005753 150.799896,79.475418 
z"/>
<path fill="#F4F4F4" opacity="1.000000" stroke="none" 
	d="
M96.168877,112.398041 
	C93.237343,117.786629 89.439346,119.242538 85.737617,116.722046 
	C82.274269,114.363838 81.137199,109.598701 84.101288,106.860176 
	C85.861053,105.234337 89.120911,104.129158 91.453239,104.478661 
	C95.162979,105.034554 96.615356,108.252670 96.168877,112.398041 
z"/>
<path fill="#F3F3F3" opacity="1.000000" stroke="none" 
	d="
M137.216995,103.984314 
	C141.634171,104.075882 144.761414,106.102615 144.678314,110.032280 
	C144.626740,112.471756 142.667389,116.055099 140.622711,116.933723 
	C138.595505,117.804840 134.687347,116.719757 132.843414,115.090271 
	C129.050339,111.738327 131.087494,106.730629 137.216995,103.984314 
z"/>
<path fill="#F2F2F2" opacity="1.000000" stroke="none" 
	d="
M114.717514,104.003876 
	C117.006042,106.318611 119.861481,108.350662 120.461914,110.911453 
	C120.861000,112.613472 118.479141,115.887802 116.523888,116.944641 
	C114.809120,117.871483 111.273239,117.491600 109.785042,116.226433 
	C108.116035,114.807564 106.935493,111.650719 107.169037,109.420395 
	C107.553207,105.751579 110.461143,103.859169 114.717514,104.003876 
z"/>
</svg>