<svg version="1.1" id="Layer_1" xmlns="http://www.w3.org/2000/svg" xmlns:xlink="http://www.w3.org/1999/xlink" x="0px" y="0px"
	 width="100%" viewBox="0 0 303 206" enable-background="new 0 0 303 206" xml:space="preserve">
<path fill="#000000" opacity="1.000000" stroke="none" 
	d="
M193.000000,207.000000 
	C128.666672,207.000000 64.833351,207.000000 1.000017,207.000000 
	C1.000011,138.333344 1.000011,69.666695 1.000006,1.000036 
	C101.999969,1.000024 202.999939,1.000024 303.999939,1.000012 
	C303.999939,69.666634 303.999939,138.333267 303.999969,206.999939 
	C267.166656,207.000000 230.333328,207.000000 193.000000,207.000000 
M288.748138,130.435150 
	C297.493225,131.972076 297.993011,131.575439 297.995941,123.038132 
	C298.000183,110.571404 298.000061,98.104683 297.998352,85.637955 
	C297.997131,76.656158 297.994598,76.656158 288.451294,77.596764 
	C288.330719,78.705513 288.210144,79.814262 288.001099,81.866501 
	C288.044617,97.604927 288.088104,113.343346 288.118835,129.485229 
	C288.118835,129.485229 288.177216,129.884674 288.748138,130.435150 
M224.971252,128.137329 
	C224.987991,112.808327 224.927612,97.478569 225.076416,82.150848 
	C225.113068,78.376427 224.005859,76.810463 219.958771,76.856262 
	C215.854263,76.902733 214.914459,78.663445 214.950180,82.345436 
	C215.084290,96.174004 214.994858,110.004677 215.003479,123.834549 
	C215.008224,131.463272 217.161209,132.783295 224.891037,129.492920 
	C224.891037,129.492920 224.874847,129.080566 224.971252,128.137329 
M119.006538,105.855637 
	C118.992241,112.675964 119.082794,119.498817 118.919121,126.315559 
	C118.838074,129.691086 120.006416,131.097931 123.523186,131.037369 
	C132.836487,130.877014 142.154831,130.919342 151.469940,131.008560 
	C154.517471,131.037766 156.099030,130.118561 156.052856,126.754982 
	C156.007721,123.466591 154.183044,122.970749 151.532028,122.995010 
	C145.543793,123.049812 139.551178,123.107689 133.568329,122.915314 
	C132.130173,122.869072 129.571640,121.973557 129.496078,121.260193 
	C129.116135,117.672943 128.789062,113.840744 129.773926,110.485062 
	C130.095474,109.389473 134.414642,109.310387 136.934647,109.062943 
	C139.241669,108.836403 141.596497,108.882721 143.914993,109.037430 
	C147.317200,109.264450 149.130905,108.355774 149.136002,104.405663 
	C149.141312,100.296837 147.000259,99.746696 143.766098,99.927635 
	C141.775925,100.038971 139.774643,99.951210 137.778351,99.953369 
	C128.750824,99.963142 128.954895,99.962219 128.911621,91.029457 
	C128.891846,86.943741 130.518188,85.858093 134.246033,85.981972 
	C140.061905,86.175240 145.891708,85.920639 151.710739,86.059540 
	C154.981430,86.137619 156.079971,84.750702 156.060074,81.592392 
	C156.041214,78.597443 155.354523,76.922424 151.904160,76.971573 
	C141.260864,77.123169 130.614700,77.072716 119.413567,77.704803 
	C119.308266,86.773483 119.202957,95.842171 119.006538,105.855637 
M196.028839,78.864594 
	C196.028839,89.710960 196.028839,100.557327 196.028839,112.844704 
	C194.323883,110.640297 193.576569,109.780617 192.946075,108.842438 
	C186.464264,99.197685 179.845764,89.639244 173.608978,79.838089 
	C171.073257,75.853165 167.511414,76.728416 164.359802,77.409348 
	C163.217712,77.656105 162.093216,80.980103 162.066620,82.915184 
	C161.872253,97.056229 162.044922,111.202011 161.900970,125.344254 
	C161.862122,129.159485 162.651093,131.077774 167.087677,131.094147 
	C171.811295,131.111603 172.087479,128.657455 172.033737,125.092125 
	C171.910889,116.940575 171.974518,108.785782 172.019531,100.632622 
	C172.025848,99.486092 172.353058,98.341316 172.692520,96.164993 
	C174.262802,98.499924 175.167145,99.861832 176.088608,101.212059 
	C182.358780,110.400002 188.341629,119.810593 195.136520,128.592773 
	C196.596329,130.479507 200.989441,130.415878 204.047073,130.478134 
	C204.659409,130.490601 205.886230,126.997139 205.907700,125.109734 
	C206.070419,110.801888 205.911377,96.490417 206.069275,82.182457 
	C206.111664,78.342758 204.876770,76.532616 200.912277,76.979630 
	C199.594467,77.128220 198.254929,77.084015 196.552460,77.268898 
	C196.317444,77.425766 196.175735,77.643402 196.028839,78.864594 
M183.294617,12.136819 
	C176.928757,10.741394 170.601868,9.125325 164.189606,7.992583 
	C146.120728,4.800666 128.881470,8.255459 112.324486,15.416594 
	C97.576767,21.795200 85.288071,31.558071 75.385292,44.231613 
	C68.704201,52.782036 63.737831,62.262146 59.908703,72.959480 
	C68.158218,72.959480 75.805641,73.049820 83.446289,72.863060 
	C84.605911,72.834709 86.212326,71.791740 86.801842,70.756630 
	C91.955826,61.706944 97.900703,53.408848 106.361382,47.044399 
	C120.138336,36.680836 135.446335,30.996120 152.773270,30.960396 
	C161.928482,30.941519 170.589859,33.122986 179.051361,36.436462 
	C195.927521,43.045063 208.368515,54.570839 217.073669,70.338356 
	C217.629349,71.344864 218.690628,72.783066 219.545242,72.803123 
	C227.582916,72.991737 235.626831,72.915161 244.319656,72.915161 
	C232.683151,43.415123 213.557129,22.761652 183.294617,12.136819 
M221.003494,136.041214 
	C219.676544,136.928040 217.994110,137.545547 217.083359,138.747711 
	C212.841858,144.346375 209.531433,150.842453 204.577835,155.674438 
	C188.184601,171.665268 168.607010,179.401443 145.301346,177.128418 
	C118.859909,174.549530 99.770264,161.354370 86.884872,138.479141 
	C86.287842,137.419250 84.823166,136.197464 83.734047,136.169678 
	C75.960815,135.971359 68.180168,136.063843 60.274551,136.063843 
	C71.317383,171.107605 108.930962,205.064224 158.842163,201.864365 
	C201.933807,199.101715 235.276657,166.096359 243.442917,136.046997 
	C236.216507,136.046997 229.063721,136.046997 221.003494,136.041214 
M65.199989,78.988892 
	C65.136879,94.804367 65.136230,110.620522 64.962860,126.434784 
	C64.923820,129.995453 66.448418,131.077820 69.767052,131.001205 
	C75.758179,130.862885 81.763916,131.187256 87.747650,130.937393 
	C97.445847,130.532425 105.525314,126.349342 109.401405,117.431183 
	C114.007820,106.832687 113.657211,96.035156 105.943489,86.436142 
	C99.933289,78.957001 91.303680,77.638329 82.647202,77.137794 
	C76.972252,76.809662 71.223274,77.761726 65.199989,78.988892 
M39.504257,83.954491 
	C38.204922,80.391533 37.479939,76.847488 32.109119,76.793457 
	C26.777864,76.739822 25.977274,80.131363 24.549986,83.729652 
	C21.425388,91.606995 18.073416,99.393822 14.898561,107.251656 
	C11.874674,114.735825 8.957825,122.263245 5.985015,129.794189 
	C13.037624,132.155487 16.629242,131.620544 17.738195,127.220734 
	C19.613514,119.780319 24.168802,117.943275 30.979473,118.974167 
	C32.610001,119.220963 34.342407,119.249756 35.967461,118.994186 
	C41.305984,118.154579 44.124073,120.392670 45.801434,125.496758 
	C47.804108,131.590775 51.812325,132.723328 57.991245,129.335678 
	C51.955975,114.475861 45.899040,99.562691 39.504257,83.954491 
M266.864044,83.292175 
	C263.463531,88.831398 260.062988,94.370621 256.411224,100.319092 
	C252.817032,94.130363 249.640762,88.503448 246.309601,82.969772 
	C242.971558,77.424606 240.049728,76.601006 233.349106,79.297089 
	C234.167282,80.918922 234.925812,82.536819 235.781815,84.101418 
	C243.242554,97.738449 254.191879,110.116241 251.187897,127.541893 
	C251.028824,128.464569 253.048294,130.552536 254.303528,130.792938 
	C259.807495,131.847061 261.385071,130.661774 260.895264,124.912048 
	C260.126221,115.884293 262.421173,108.104454 267.562775,100.653061 
	C272.598358,93.355293 276.771118,85.462158 281.450714,77.615524 
	C271.527832,75.971581 270.824280,76.238556 266.864044,83.292175 
z"/>
<path fill="#F93C3A" opacity="1.000000" stroke="none" 
	d="
M183.635971,12.349806 
	C213.557129,22.761652 232.683151,43.415123 244.319656,72.915161 
	C235.626831,72.915161 227.582916,72.991737 219.545242,72.803123 
	C218.690628,72.783066 217.629349,71.344864 217.073669,70.338356 
	C208.368515,54.570839 195.927521,43.045063 179.051361,36.436462 
	C170.589859,33.122986 161.928482,30.941519 152.773270,30.960396 
	C135.446335,30.996120 120.138336,36.680836 106.361382,47.044399 
	C97.900703,53.408848 91.955826,61.706944 86.801842,70.756630 
	C86.212326,71.791740 84.605911,72.834709 83.446289,72.863060 
	C75.805641,73.049820 68.158218,72.959480 59.908703,72.959480 
	C63.737831,62.262146 68.704201,52.782036 75.385292,44.231613 
	C85.288071,31.558071 97.576767,21.795200 112.324486,15.416594 
	C128.881470,8.255459 146.120728,4.800666 164.189606,7.992583 
	C170.601868,9.125325 176.928757,10.741394 183.635971,12.349806 
z"/>
<path fill="#F93C3A" opacity="1.000000" stroke="none" 
	d="
M221.457214,136.044098 
	C229.063721,136.046997 236.216507,136.046997 243.442917,136.046997 
	C235.276657,166.096359 201.933807,199.101715 158.842163,201.864365 
	C108.930962,205.064224 71.317383,171.107605 60.274551,136.063843 
	C68.180168,136.063843 75.960815,135.971359 83.734047,136.169678 
	C84.823166,136.197464 86.287842,137.419250 86.884872,138.479141 
	C99.770264,161.354370 118.859909,174.549530 145.301346,177.128418 
	C168.607010,179.401443 188.184601,171.665268 204.577835,155.674438 
	C209.531433,150.842453 212.841858,144.346375 217.083359,138.747711 
	C217.994110,137.545547 219.676544,136.928040 221.457214,136.044098 
z"/>
<path fill="#D3D3D3" opacity="1.000000" stroke="none"
	d="
M196.925323,77.127945 
	C198.254929,77.084015 199.594467,77.128220 200.912277,76.979630 
	C204.876770,76.532616 206.111664,78.342758 206.069275,82.182457 
	C205.911377,96.490417 206.070419,110.801888 205.907700,125.109734 
	C205.886230,126.997139 204.659409,130.490601 204.047073,130.478134 
	C200.989441,130.415878 196.596329,130.479507 195.136520,128.592773 
	C188.341629,119.810593 182.358780,110.400002 176.088608,101.212059 
	C175.167145,99.861832 174.262802,98.499924 172.692520,96.164993 
	C172.353058,98.341316 172.025848,99.486092 172.019531,100.632622 
	C171.974518,108.785782 171.910889,116.940575 172.033737,125.092125 
	C172.087479,128.657455 171.811295,131.111603 167.087677,131.094147 
	C162.651093,131.077774 161.862122,129.159485 161.900970,125.344254 
	C162.044922,111.202011 161.872253,97.056229 162.066620,82.915184 
	C162.093216,80.980103 163.217712,77.656105 164.359802,77.409348 
	C167.511414,76.728416 171.073257,75.853165 173.608978,79.838089 
	C179.845764,89.639244 186.464264,99.197685 192.946075,108.842438 
	C193.576569,109.780617 194.323883,110.640297 196.028839,112.844704 
	C196.028839,100.557327 196.028839,89.710960 196.220596,78.271072 
	C196.596848,77.506950 196.767838,77.323753 196.925323,77.127945 
z"/>
<path fill="#D3D3D3" opacity="1.000000" stroke="none"
	d="
M65.353722,78.564659 
	C71.223274,77.761726 76.972252,76.809662 82.647202,77.137794 
	C91.303680,77.638329 99.933289,78.957001 105.943489,86.436142 
	C113.657211,96.035156 114.007820,106.832687 109.401405,117.431183 
	C105.525314,126.349342 97.445847,130.532425 87.747650,130.937393 
	C81.763916,131.187256 75.758179,130.862885 69.767052,131.001205 
	C66.448418,131.077820 64.923820,129.995453 64.962860,126.434784 
	C65.136230,110.620522 65.136879,94.804367 65.353722,78.564659 
M76.005241,91.706612 
	C76.004181,98.344521 76.101112,104.984184 75.982262,111.619987 
	C75.709572,126.845055 76.384979,123.191055 88.124733,121.629967 
	C91.832146,121.136978 96.574875,118.081451 98.297325,114.843918 
	C104.908058,102.418381 101.308678,86.108162 80.976219,85.979538 
	C77.450363,85.957237 75.550331,86.971596 76.005241,91.706612 
z"/>
<path fill="#D3D3D3" opacity="1.000000" stroke="none"
	d="
M39.673180,84.302002 
	C45.899040,99.562691 51.955975,114.475861 57.991245,129.335678 
	C51.812325,132.723328 47.804108,131.590775 45.801434,125.496758 
	C44.124073,120.392670 41.305984,118.154579 35.967461,118.994186 
	C34.342407,119.249756 32.610001,119.220963 30.979473,118.974167 
	C24.168802,117.943275 19.613514,119.780319 17.738195,127.220734 
	C16.629242,131.620544 13.037624,132.155487 5.985015,129.794189 
	C8.957825,122.263245 11.874674,114.735825 14.898561,107.251656 
	C18.073416,99.393822 21.425388,91.606995 24.549986,83.729652 
	C25.977274,80.131363 26.777864,76.739822 32.109119,76.793457 
	C37.479939,76.847488 38.204922,80.391533 39.673180,84.302002 
M35.992878,100.481804 
	C34.831902,97.511299 33.670925,94.540794 32.509949,91.570290 
	C32.096970,91.607788 31.683987,91.645287 31.271004,91.682785 
	C29.160223,97.435562 27.049440,103.188339 24.788054,109.351578 
	C30.029760,109.351578 34.285877,109.351578 39.302589,109.351578 
	C38.044365,106.095261 37.106426,103.667847 35.992878,100.481804 
z"/>
<path fill="#D3D3D3" opacity="1.000000" stroke="none"
	d="
M119.969643,77.100746 
	C130.614700,77.072716 141.260864,77.123169 151.904160,76.971573 
	C155.354523,76.922424 156.041214,78.597443 156.060074,81.592392 
	C156.079971,84.750702 154.981430,86.137619 151.710739,86.059540 
	C145.891708,85.920639 140.061905,86.175240 134.246033,85.981972 
	C130.518188,85.858093 128.891846,86.943741 128.911621,91.029457 
	C128.954895,99.962219 128.750824,99.963142 137.778351,99.953369 
	C139.774643,99.951210 141.775925,100.038971 143.766098,99.927635 
	C147.000259,99.746696 149.141312,100.296837 149.136002,104.405663 
	C149.130905,108.355774 147.317200,109.264450 143.914993,109.037430 
	C141.596497,108.882721 139.241669,108.836403 136.934647,109.062943 
	C134.414642,109.310387 130.095474,109.389473 129.773926,110.485062 
	C128.789062,113.840744 129.116135,117.672943 129.496078,121.260193 
	C129.571640,121.973557 132.130173,122.869072 133.568329,122.915314 
	C139.551178,123.107689 145.543793,123.049812 151.532028,122.995010 
	C154.183044,122.970749 156.007721,123.466591 156.052856,126.754982 
	C156.099030,130.118561 154.517471,131.037766 151.469940,131.008560 
	C142.154831,130.919342 132.836487,130.877014 123.523186,131.037369 
	C120.006416,131.097931 118.838074,129.691086 118.919121,126.315559 
	C119.082794,119.498817 118.992241,112.675964 119.233467,105.023743 
	C119.630142,95.161484 119.799896,86.131111 119.969643,77.100746 
z"/>
<path fill="#D3D3D3" opacity="1.000000" stroke="none"
	d="
M267.034851,82.962921 
	C270.824280,76.238556 271.527832,75.971581 281.450714,77.615524 
	C276.771118,85.462158 272.598358,93.355293 267.562775,100.653061 
	C262.421173,108.104454 260.126221,115.884293 260.895264,124.912048 
	C261.385071,130.661774 259.807495,131.847061 254.303528,130.792938 
	C253.048294,130.552536 251.028824,128.464569 251.187897,127.541893 
	C254.191879,110.116241 243.242554,97.738449 235.781815,84.101418 
	C234.925812,82.536819 234.167282,80.918922 233.349106,79.297089 
	C240.049728,76.601006 242.971558,77.424606 246.309601,82.969772 
	C249.640762,88.503448 252.817032,94.130363 256.411224,100.319092 
	C260.062988,94.370621 263.463531,88.831398 267.034851,82.962921 
z"/>
<path fill="#D3D3D3" opacity="1.000000" stroke="none"
	d="
M224.838028,129.902176 
	C217.161209,132.783295 215.008224,131.463272 215.003479,123.834549 
	C214.994858,110.004677 215.084290,96.174004 214.950180,82.345436 
	C214.914459,78.663445 215.854263,76.902733 219.958771,76.856262 
	C224.005859,76.810463 225.113068,78.376427 225.076416,82.150848 
	C224.927612,97.478569 224.987991,112.808327 224.874420,128.706146 
	C224.709412,129.489838 224.729553,129.698914 224.838028,129.902176 
z"/>
<path fill="#D3D3D3" opacity="1.000000" stroke="none"
	d="
M288.958801,77.154312 
	C297.994598,76.656158 297.997131,76.656158 297.998352,85.637955 
	C298.000061,98.104683 298.000183,110.571404 297.995941,123.038132 
	C297.993011,131.575439 297.493225,131.972076 288.499481,130.060883 
	C288.293884,129.471466 288.254150,129.269852 288.131622,129.081772 
	C288.088104,113.343346 288.044617,97.604927 288.214020,81.115219 
	C288.604218,79.294052 288.781494,78.224182 288.958801,77.154312 
z"/>
<path fill="#3E3E3E" opacity="1.000000" stroke="none" 
	d="
M119.691605,77.402771 
	C119.799896,86.131111 119.630142,95.161484 119.279022,104.551346 
	C119.202957,95.842171 119.308266,86.773483 119.691605,77.402771 
z"/>
<path fill="#3D3D3D" opacity="1.000000" stroke="none" 
	d="
M288.705017,77.375534 
	C288.781494,78.224182 288.604218,79.294052 288.258240,80.643478 
	C288.210144,79.814262 288.330719,78.705513 288.705017,77.375534 
z"/>
<path fill="#3B3B3B" opacity="1.000000" stroke="none" 
	d="
M196.738892,77.198425 
	C196.767838,77.323753 196.596848,77.506950 196.269836,77.799675 
	C196.175735,77.643402 196.317444,77.425766 196.738892,77.198425 
z"/>
<path fill="#3C3C3C" opacity="1.000000" stroke="none" 
	d="
M224.864532,129.697540 
	C224.729553,129.698914 224.709412,129.489838 224.826202,129.177765 
	C224.874847,129.080566 224.891037,129.492920 224.864532,129.697540 
z"/>
<path fill="#3D3D3D" opacity="1.000000" stroke="none" 
	d="
M288.125244,129.283508 
	C288.254150,129.269852 288.293884,129.471466 288.214020,129.785645 
	C288.177216,129.884674 288.118835,129.485229 288.125244,129.283508 
z"/>
<path fill="#000000" opacity="1.000000" stroke="none" 
	d="
M76.007423,91.237106 
	C75.550331,86.971596 77.450363,85.957237 80.976219,85.979538 
	C101.308678,86.108162 104.908058,102.418381 98.297325,114.843918 
	C96.574875,118.081451 91.832146,121.136978 88.124733,121.629967 
	C76.384979,123.191055 75.709572,126.845055 75.982262,111.619987 
	C76.101112,104.984184 76.004181,98.344521 76.007423,91.237106 
z"/>
<path fill="#000000" opacity="1.000000" stroke="none" 
	d="
M36.080685,100.861115 
	C37.106426,103.667847 38.044365,106.095261 39.302589,109.351578 
	C34.285877,109.351578 30.029760,109.351578 24.788054,109.351578 
	C27.049440,103.188339 29.160223,97.435562 31.271004,91.682785 
	C31.683987,91.645287 32.096970,91.607788 32.509949,91.570290 
	C33.670925,94.540794 34.831902,97.511299 36.080685,100.861115 
z"/>
</svg>