<svg version="1.1" id="Layer_1" xmlns="http://www.w3.org/2000/svg" xmlns:xlink="http://www.w3.org/1999/xlink" x="0px" y="0px"
	 width="100%" viewBox="0 0 303 206" enable-background="new 0 0 303 206" xml:space="preserve">
<path fill="#FFFEFE" opacity="1.000000" stroke="none" 
	d="
M193.000000,207.000000 
	C128.666672,207.000000 64.833351,207.000000 1.000017,207.000000 
	C1.000011,138.333344 1.000011,69.666695 1.000006,1.000036 
	C101.999969,1.000024 202.999939,1.000024 303.999939,1.000012 
	C303.999939,69.666634 303.999939,138.333267 303.999969,206.999939 
	C267.166656,207.000000 230.333328,207.000000 193.000000,207.000000 
M183.673203,12.830544 
	C126.392395,-7.168536 72.572678,30.833309 61.307903,72.543533 
	C67.875343,72.543533 74.355835,72.384575 80.822845,72.610863 
	C84.036613,72.723312 85.757942,71.732918 87.432037,68.801071 
	C98.803917,48.885487 115.743996,35.915462 138.356949,32.059635 
	C171.846725,26.349157 199.834717,40.189674 217.177734,69.592026 
	C217.859100,70.747185 219.132584,72.338310 220.172775,72.370995 
	C227.743057,72.608902 235.324265,72.498970 243.086044,72.498970 
	C236.505356,49.709770 213.972855,22.816963 183.673203,12.830544 
M95.333138,183.172195 
	C127.274788,204.783936 160.925995,207.613281 195.577484,190.938126 
	C218.817291,179.754578 234.255600,161.062149 243.755722,136.287628 
	C236.224091,136.287628 229.902206,136.426514 223.590683,136.230835 
	C220.283401,136.128311 218.375870,136.982208 216.562531,140.168655 
	C200.234436,168.860794 168.586182,183.436737 136.864090,176.656448 
	C114.830475,171.946976 98.301064,159.351303 87.016693,139.823929 
	C86.206566,138.422028 84.664108,136.516129 83.392204,136.461075 
	C75.993324,136.140869 68.573517,136.304352 60.428692,136.304352 
	C67.348312,155.915802 79.174126,170.711517 95.333138,183.172195 
M203.469055,131.009384 
	C204.316071,130.006592 205.848999,129.034439 205.895355,127.995903 
	C206.140152,122.511673 206.010574,117.010735 206.010620,111.515587 
	C206.010712,100.403389 206.010651,89.291183 206.010651,78.192688 
	C202.480896,78.192688 199.447739,78.192688 195.999603,78.192688 
	C195.999603,90.092407 195.999603,101.626160 195.999603,114.604065 
	C188.610901,103.482384 181.629822,93.798836 175.591522,83.559326 
	C172.256866,77.904549 168.259628,76.742767 162.382660,78.342194 
	C162.382660,95.738518 162.382660,113.140625 162.382660,130.716217 
	C165.662430,130.716217 168.705948,130.716217 172.287415,130.716217 
	C172.287415,118.790558 172.287415,107.151123 172.287415,94.497513 
	C179.779495,105.693840 186.785446,115.818695 193.379517,126.205055 
	C195.689514,129.843536 198.180862,131.894135 203.469055,131.009384 
M65.448776,126.255608 
	C65.519859,127.720367 65.590942,129.185135 65.671722,130.849701 
	C73.414207,130.849701 80.960655,131.552277 88.317711,130.671967 
	C97.526192,129.570129 105.616089,125.806068 109.510109,116.311371 
	C116.488441,99.296272 108.293053,81.664307 91.040459,78.685234 
	C82.869598,77.274345 74.253304,78.443054 65.448921,78.443054 
	C65.448921,94.041168 65.448921,109.671837 65.448776,126.255608 
M150.324631,77.807404 
	C140.060013,77.807404 129.795380,77.807404 119.393509,77.807404 
	C119.393509,95.794342 119.393509,113.192665 119.393509,130.681320 
	C131.518677,130.681320 143.385910,130.681320 155.181229,130.681320 
	C155.181229,127.942169 155.181229,125.554466 155.181229,122.704590 
	C146.236389,122.704590 137.666458,122.704590 129.280579,122.704590 
	C129.280579,117.773232 129.280579,113.319946 129.280579,108.440063 
	C135.789108,108.440063 142.043808,108.440063 148.289642,108.440063 
	C148.289642,105.585526 148.289642,103.169510 148.289642,100.297546 
	C141.798843,100.297546 135.564819,100.297546 129.320877,100.297546 
	C129.320877,95.250343 129.320877,90.677208 129.320877,85.635849 
	C138.180847,85.635849 146.747971,85.635849 155.334183,85.635849 
	C155.334183,82.881729 155.334183,80.603310 155.334183,78.067329 
	C153.849594,77.972267 152.562317,77.889839 150.324631,77.807404 
M42.105164,91.293663 
	C40.819748,88.059685 39.183563,84.913841 38.342911,81.568108 
	C37.414639,77.873672 35.102055,77.685593 32.055565,77.760918 
	C29.138533,77.833038 27.018059,77.808723 25.651466,81.430809 
	C19.852869,96.799698 13.573088,111.986908 7.492380,127.249763 
	C7.046246,128.369583 6.785059,129.563095 6.387636,130.890152 
	C9.788998,130.890152 12.767818,130.890152 15.966501,130.890152 
	C17.204527,127.796425 18.341351,124.686836 19.708975,121.682320 
	C20.194252,120.616226 21.220091,119.023712 22.034998,119.001755 
	C28.853189,118.818069 35.997112,117.779266 42.358158,119.511909 
	C45.169891,120.277786 46.400013,126.850235 48.317448,130.724640 
	C51.408806,130.724640 54.465412,130.724640 57.900501,130.724640 
	C52.628510,117.566429 47.508942,104.788651 42.105164,91.293663 
M269.703979,96.267426 
	C273.226471,90.313118 276.748962,84.358810 280.410431,78.169556 
	C270.730469,77.299576 270.724792,77.296219 266.195740,84.959885 
	C263.022003,90.330208 259.866425,95.711250 256.499878,101.432167 
	C252.967010,95.361229 249.695633,89.765938 246.449966,84.155777 
	C242.197037,76.804558 241.865570,76.653145 233.033600,78.554543 
	C238.731110,88.377708 244.468613,98.086456 249.976288,107.923866 
	C251.049789,109.841248 251.640137,112.239868 251.741348,114.449142 
	C251.989639,119.868347 251.822510,125.306595 251.822510,130.758041 
	C255.178299,130.758041 257.923523,130.758041 261.435303,130.758041 
	C259.436188,118.242035 261.164886,106.733566 269.703979,96.267426 
M214.989426,100.500046 
	C214.989426,110.577591 214.989426,120.655128 214.989426,130.628601 
	C218.583176,130.628601 221.618378,130.628601 224.548889,130.628601 
	C224.548889,112.870987 224.548889,95.496872 224.548889,78.012093 
	C221.317673,78.012093 218.386932,78.012093 214.989426,78.012093 
	C214.989426,85.298363 214.989426,92.399239 214.989426,100.500046 
M298.010529,106.499992 
	C298.010529,97.071426 298.010529,87.642868 298.010529,78.166023 
	C294.516266,78.166023 291.485748,78.166023 288.411530,78.166023 
	C288.411530,95.879372 288.411530,113.245956 288.411530,130.691193 
	C291.718384,130.691193 294.759216,130.691193 298.010529,130.691193 
	C298.010529,122.748764 298.010529,115.124367 298.010529,106.499992 
z"/>
<path fill="#FE3C3B" opacity="1.000000" stroke="none" 
	d="
M184.048187,12.949911 
	C213.972855,22.816963 236.505356,49.709770 243.086044,72.498970 
	C235.324265,72.498970 227.743057,72.608902 220.172775,72.370995 
	C219.132584,72.338310 217.859100,70.747185 217.177734,69.592026 
	C199.834717,40.189674 171.846725,26.349157 138.356949,32.059635 
	C115.743996,35.915462 98.803917,48.885487 87.432037,68.801071 
	C85.757942,71.732918 84.036613,72.723312 80.822845,72.610863 
	C74.355835,72.384575 67.875343,72.543533 61.307903,72.543533 
	C72.572678,30.833309 126.392395,-7.168536 184.048187,12.949911 
z"/>
<path fill="#FE3D3C" opacity="1.000000" stroke="none" 
	d="
M95.045975,182.960983 
	C79.174126,170.711517 67.348312,155.915802 60.428692,136.304352 
	C68.573517,136.304352 75.993324,136.140869 83.392204,136.461075 
	C84.664108,136.516129 86.206566,138.422028 87.016693,139.823929 
	C98.301064,159.351303 114.830475,171.946976 136.864090,176.656448 
	C168.586182,183.436737 200.234436,168.860794 216.562531,140.168655 
	C218.375870,136.982208 220.283401,136.128311 223.590683,136.230835 
	C229.902206,136.426514 236.224091,136.287628 243.755722,136.287628 
	C234.255600,161.062149 218.817291,179.754578 195.577484,190.938126 
	C160.925995,207.613281 127.274788,204.783936 95.045975,182.960983 
z"/>
<path fill="#383838" opacity="1.000000" stroke="none" 
	d="
M203.008682,131.009949 
	C198.180862,131.894135 195.689514,129.843536 193.379517,126.205055 
	C186.785446,115.818695 179.779495,105.693840 172.287415,94.497513 
	C172.287415,107.151123 172.287415,118.790558 172.287415,130.716217 
	C168.705948,130.716217 165.662430,130.716217 162.382660,130.716217 
	C162.382660,113.140625 162.382660,95.738518 162.382660,78.342194 
	C168.259628,76.742767 172.256866,77.904549 175.591522,83.559326 
	C181.629822,93.798836 188.610901,103.482384 195.999603,114.604065 
	C195.999603,101.626160 195.999603,90.092407 195.999603,78.192688 
	C199.447739,78.192688 202.480896,78.192688 206.010651,78.192688 
	C206.010651,89.291183 206.010712,100.403389 206.010620,111.515587 
	C206.010574,117.010735 206.140152,122.511673 205.895355,127.995903 
	C205.848999,129.034439 204.316071,130.006592 203.008682,131.009949 
z"/>
<path fill="#3A3A3A" opacity="1.000000" stroke="none" 
	d="
M65.448853,125.779053 
	C65.448921,109.671837 65.448921,94.041168 65.448921,78.443054 
	C74.253304,78.443054 82.869598,77.274345 91.040459,78.685234 
	C108.293053,81.664307 116.488441,99.296272 109.510109,116.311371 
	C105.616089,125.806068 97.526192,129.570129 88.317711,130.671967 
	C80.960655,131.552277 73.414207,130.849701 65.671722,130.849701 
	C65.590942,129.185135 65.519859,127.720367 65.448853,125.779053 
M101.011368,97.874031 
	C96.973450,87.869820 88.735146,84.144524 75.402756,86.421364 
	C75.402756,98.428688 75.402756,110.470665 75.402756,122.478729 
	C94.411377,125.297073 104.516998,115.884773 101.011368,97.874031 
z"/>
<path fill="#3C3C3C" opacity="1.000000" stroke="none" 
	d="
M150.799835,77.807404 
	C152.562317,77.889839 153.849594,77.972267 155.334183,78.067329 
	C155.334183,80.603310 155.334183,82.881729 155.334183,85.635849 
	C146.747971,85.635849 138.180847,85.635849 129.320877,85.635849 
	C129.320877,90.677208 129.320877,95.250343 129.320877,100.297546 
	C135.564819,100.297546 141.798843,100.297546 148.289642,100.297546 
	C148.289642,103.169510 148.289642,105.585526 148.289642,108.440063 
	C142.043808,108.440063 135.789108,108.440063 129.280579,108.440063 
	C129.280579,113.319946 129.280579,117.773232 129.280579,122.704590 
	C137.666458,122.704590 146.236389,122.704590 155.181229,122.704590 
	C155.181229,125.554466 155.181229,127.942169 155.181229,130.681320 
	C143.385910,130.681320 131.518677,130.681320 119.393509,130.681320 
	C119.393509,113.192665 119.393509,95.794342 119.393509,77.807404 
	C129.795380,77.807404 140.060013,77.807404 150.799835,77.807404 
z"/>
<path fill="#383838" opacity="1.000000" stroke="none" 
	d="
M42.247269,91.652267 
	C47.508942,104.788651 52.628510,117.566429 57.900501,130.724640 
	C54.465412,130.724640 51.408806,130.724640 48.317448,130.724640 
	C46.400013,126.850235 45.169891,120.277786 42.358158,119.511909 
	C35.997112,117.779266 28.853189,118.818069 22.034998,119.001755 
	C21.220091,119.023712 20.194252,120.616226 19.708975,121.682320 
	C18.341351,124.686836 17.204527,127.796425 15.966501,130.890152 
	C12.767818,130.890152 9.788998,130.890152 6.387636,130.890152 
	C6.785059,129.563095 7.046246,128.369583 7.492380,127.249763 
	C13.573088,111.986908 19.852869,96.799698 25.651466,81.430809 
	C27.018059,77.808723 29.138533,77.833038 32.055565,77.760918 
	C35.102055,77.685593 37.414639,77.873672 38.342911,81.568108 
	C39.183563,84.913841 40.819748,88.059685 42.247269,91.652267 
M38.115429,104.429008 
	C36.218494,99.429214 34.321560,94.429420 31.976418,88.248268 
	C28.879953,96.496704 26.288288,103.400444 23.586769,110.596817 
	C29.429028,110.596817 34.632935,110.596817 40.325806,110.596817 
	C39.589012,108.536850 38.988358,106.857506 38.115429,104.429008 
z"/>
<path fill="#373737" opacity="1.000000" stroke="none" 
	d="
M269.492126,96.564285 
	C261.164886,106.733566 259.436188,118.242035 261.435303,130.758041 
	C257.923523,130.758041 255.178299,130.758041 251.822510,130.758041 
	C251.822510,125.306595 251.989639,119.868347 251.741348,114.449142 
	C251.640137,112.239868 251.049789,109.841248 249.976288,107.923866 
	C244.468613,98.086456 238.731110,88.377708 233.033600,78.554543 
	C241.865570,76.653145 242.197037,76.804558 246.449966,84.155777 
	C249.695633,89.765938 252.967010,95.361229 256.499878,101.432167 
	C259.866425,95.711250 263.022003,90.330208 266.195740,84.959885 
	C270.724792,77.296219 270.730469,77.299576 280.410431,78.169556 
	C276.748962,84.358810 273.226471,90.313118 269.492126,96.564285 
z"/>
<path fill="#383838" opacity="1.000000" stroke="none" 
	d="
M214.989426,100.000076 
	C214.989426,92.399239 214.989426,85.298363 214.989426,78.012093 
	C218.386932,78.012093 221.317673,78.012093 224.548889,78.012093 
	C224.548889,95.496872 224.548889,112.870987 224.548889,130.628601 
	C221.618378,130.628601 218.583176,130.628601 214.989426,130.628601 
	C214.989426,120.655128 214.989426,110.577591 214.989426,100.000076 
z"/>
<path fill="#383838" opacity="1.000000" stroke="none" 
	d="
M298.010529,106.999985 
	C298.010529,115.124367 298.010529,122.748764 298.010529,130.691193 
	C294.759216,130.691193 291.718384,130.691193 288.411530,130.691193 
	C288.411530,113.245956 288.411530,95.879372 288.411530,78.166023 
	C291.485748,78.166023 294.516266,78.166023 298.010529,78.166023 
	C298.010529,87.642868 298.010529,97.071426 298.010529,106.999985 
z"/>
<path fill="#FBFBFB" opacity="1.000000" stroke="none" 
	d="
M101.127075,98.265221 
	C104.516998,115.884773 94.411377,125.297073 75.402756,122.478729 
	C75.402756,110.470665 75.402756,98.428688 75.402756,86.421364 
	C88.735146,84.144524 96.973450,87.869820 101.127075,98.265221 
z"/>
<path fill="#F4F4F4" opacity="1.000000" stroke="none" 
	d="
M38.251564,104.803581 
	C38.988358,106.857506 39.589012,108.536850 40.325806,110.596817 
	C34.632935,110.596817 29.429028,110.596817 23.586769,110.596817 
	C26.288288,103.400444 28.879953,96.496704 31.976418,88.248268 
	C34.321560,94.429420 36.218494,99.429214 38.251564,104.803581 
z"/>
</svg>